<svg width="116" height="24" viewBox="0 0 116 24" fill="none" xmlns="http://www.w3.org/2000/svg">
<path fill-rule="evenodd" clip-rule="evenodd" d="M109.555 0.249977V6.48273H112.031C112.031 7.8586 111.059 9.55621 109.549 10.1262L110.167 11.4653C113.431 10.8156 115.759 8.4071 115.759 4.8556V0.249977H109.555ZM115.136 4.8556C115.136 7.77586 113.379 9.99134 110.515 10.7452V10.7421L110.365 10.4173C111.854 9.55008 112.648 7.82489 112.648 6.4766V5.85762H110.173V0.872027H115.133V4.8556H115.136ZM100.845 0.249977V6.48273H103.33C103.33 7.8586 102.358 9.55621 100.848 10.1262L101.466 11.4653C104.73 10.8156 107.049 8.4071 107.049 4.8556V0.249977H100.845ZM106.426 4.8556C106.426 7.77586 104.672 9.9944 101.817 10.7452L101.667 10.4203C103.153 9.55314 103.95 7.82795 103.95 6.47967V5.85762H101.466V0.872027H106.426V4.8556Z" fill="white"/>
<path d="M7.56101 23.6366C6.43022 23.6366 5.40334 23.4037 4.48343 22.938C3.56352 22.4722 2.76585 21.8501 2.09655 21.0749C1.42418 20.2965 0.907688 19.4171 0.547058 18.4335C0.180315 17.4498 0 16.4386 0 15.4029C0 14.3212 0.19254 13.2855 0.57762 12.3018C0.9627 11.3182 1.49753 10.4418 2.18518 9.6696C2.87282 8.90047 3.6766 8.29068 4.59651 7.84023C5.51642 7.38978 6.51885 7.16608 7.60686 7.16608C8.73765 7.16608 9.76452 7.40203 10.6844 7.87393C11.6044 8.34583 12.3959 8.98014 13.0622 9.77379C13.7253 10.5674 14.2388 11.453 14.6025 12.4275C14.9631 13.4019 15.1465 14.4039 15.1465 15.4243C15.1465 16.506 14.957 17.5418 14.5811 18.5254C14.2021 19.509 13.6703 20.3854 12.9857 21.1576C12.2981 21.9267 11.4943 22.5335 10.5744 22.9747C9.65145 23.416 8.64596 23.6366 7.56101 23.6366ZM7.58241 21.7827C8.44119 21.7827 9.21136 21.5989 9.88983 21.2342C10.5683 20.8665 11.1459 20.3793 11.6227 19.7695C12.0964 19.1597 12.4601 18.4733 12.7076 17.7103C12.9582 16.9473 13.0805 16.1781 13.0805 15.3998C13.0805 14.5755 12.9491 13.7788 12.6832 13.0097C12.4204 12.2405 12.0414 11.5572 11.5524 10.9627C11.0603 10.3683 10.4797 9.89636 9.81037 9.54397C9.13801 9.19464 8.39535 9.01691 7.57935 9.01691C6.72056 9.01691 5.9504 9.20077 5.27193 9.56542C4.59345 9.93007 4.01583 10.4204 3.53907 11.0301C3.06841 11.643 2.70167 12.3233 2.44495 13.0802C2.18823 13.834 2.05987 14.6092 2.05987 15.4029C2.05987 16.2272 2.19129 17.0239 2.45718 17.793C2.72001 18.5622 3.09592 19.2455 3.5788 19.84C4.06168 20.4344 4.64235 20.9063 5.32083 21.2587C5.9993 21.6081 6.75418 21.7827 7.58241 21.7827ZM8.49009 18.2159H10.4827L14.9876 23.5232H12.9949L8.49009 18.2159Z" fill="white"/>
<path d="M17.4967 18.7705V11.6491H19.4893V18.3753C19.4893 19.5887 19.7002 20.4957 20.1219 21.1025C20.5437 21.7092 21.1702 22.0126 22.0015 22.0126C22.5455 22.0126 23.0681 21.8961 23.5754 21.6602C24.0797 21.4273 24.5381 21.0902 24.9446 20.652C25.3511 20.2138 25.6689 19.6929 25.8951 19.0862V11.6491H27.8877V21.2404C27.8877 21.4824 27.9366 21.6602 28.0344 21.7735C28.1322 21.8869 28.2942 21.9513 28.5203 21.9666V23.5233C28.2942 23.5539 28.1169 23.5723 27.9886 23.5815C27.8602 23.5876 27.7349 23.5937 27.6157 23.5937C27.2367 23.5937 26.9128 23.4773 26.6408 23.2413C26.3688 23.0054 26.2251 22.7143 26.2099 22.365L26.164 20.9768C25.6506 21.8563 24.9599 22.5396 24.0919 23.0238C23.224 23.5079 22.2765 23.75 21.2497 23.75C20.0119 23.75 19.0767 23.3302 18.4441 22.4875C17.8114 21.6448 17.4967 20.4069 17.4967 18.7705Z" fill="white"/>
<path d="M36.3748 23.75C35.4854 23.75 34.6755 23.5876 33.9543 23.2627C33.2299 22.9379 32.6034 22.4905 32.0747 21.9237C31.546 21.3568 31.1395 20.701 30.8522 19.9594C30.565 19.2179 30.4213 18.4396 30.4213 17.6214C30.4213 16.7879 30.565 16.0004 30.8522 15.2588C31.1395 14.5173 31.546 13.8615 32.0747 13.2946C32.6034 12.7277 33.233 12.2804 33.9634 11.9555C34.6939 11.6307 35.5068 11.4683 36.3962 11.4683C37.2702 11.4683 38.071 11.6307 38.7953 11.9555C39.5196 12.2804 40.1492 12.7277 40.684 13.2946C41.2188 13.8615 41.6314 14.5173 41.9187 15.2588C42.206 16.0004 42.3496 16.7879 42.3496 17.6214C42.3496 18.4396 42.206 19.2179 41.9187 19.9594C41.6314 20.701 41.2249 21.3568 40.6962 21.9237C40.1675 22.4905 39.5379 22.9379 38.8075 23.2627C38.0771 23.5876 37.2672 23.75 36.3748 23.75ZM32.4598 17.6428C32.4598 18.4579 32.637 19.1964 32.9916 19.8614C33.3461 20.5263 33.8167 21.0503 34.4066 21.4334C34.9964 21.8195 35.6504 22.0095 36.3748 22.0095C37.0991 22.0095 37.7592 21.8133 38.3552 21.4211C38.9511 21.0289 39.4279 20.4957 39.7824 19.8246C40.1369 19.1535 40.3142 18.4089 40.3142 17.5938C40.3142 16.7787 40.1369 16.0402 39.7824 15.3753C39.4279 14.7103 38.9511 14.1833 38.3552 13.791C37.7592 13.3988 37.0991 13.2027 36.3748 13.2027C35.6504 13.2027 34.9934 13.4019 34.4066 13.8033C33.8167 14.2047 33.3461 14.7348 32.9916 15.3998C32.637 16.0647 32.4598 16.8124 32.4598 17.6428Z" fill="white"/>
<path d="M50.705 22.9962C50.54 23.0728 50.3138 23.1708 50.0265 23.2934C49.7393 23.416 49.4061 23.5232 49.0302 23.6121C48.6513 23.704 48.254 23.75 47.8291 23.75C47.3463 23.75 46.9001 23.6611 46.4936 23.4865C46.0871 23.3118 45.7601 23.036 45.5187 22.6622C45.2772 22.2883 45.155 21.8195 45.155 21.2557V13.2272H43.5474V11.6491H45.155V7.66862H47.1476V11.6491H49.7973V13.2272H47.1476V20.6397C47.1782 21.0657 47.3218 21.3844 47.5785 21.5897C47.8353 21.795 48.1378 21.8992 48.4832 21.8992C48.8744 21.8992 49.238 21.8317 49.5681 21.6939C49.9012 21.556 50.1182 21.4579 50.2252 21.3966L50.705 22.9962Z" fill="white"/>
<path d="M51.6315 20.0912C51.6315 19.3343 51.8454 18.6786 52.2764 18.1239C52.7073 17.5693 53.2971 17.1434 54.052 16.84C54.8069 16.5366 55.6809 16.3865 56.6773 16.3865C57.206 16.3865 57.7653 16.4294 58.3521 16.5121C58.9419 16.5948 59.4614 16.7205 59.9138 16.889V16.0249C59.9138 15.124 59.6418 14.4131 59.0978 13.8922C58.5538 13.3743 57.7836 13.1138 56.7903 13.1138C56.1424 13.1138 55.519 13.2333 54.923 13.4693C54.3271 13.7052 53.6975 14.0454 53.0343 14.4866L52.31 13.0679C53.0801 12.5347 53.8503 12.1333 54.6204 11.8667C55.3906 11.6001 56.1913 11.4652 57.0196 11.4652C58.5293 11.4652 59.7212 11.885 60.5953 12.7247C61.4694 13.5643 61.9095 14.7318 61.9095 16.2271V21.2403C61.9095 21.4824 61.9584 21.6601 62.0562 21.7735C62.1539 21.8869 62.3159 21.9512 62.5421 21.9665V23.5232C62.3465 23.5538 62.1753 23.5753 62.0317 23.5906C61.8881 23.6059 61.7719 23.6121 61.6802 23.6121C61.2126 23.6121 60.8612 23.4834 60.6289 23.2229C60.3966 22.9624 60.2622 22.6897 60.2316 22.3986L60.1858 21.6448C59.6723 22.3159 59 22.8337 58.1717 23.2014C57.3405 23.5661 56.5183 23.75 55.7054 23.75C54.92 23.75 54.2201 23.5875 53.5997 23.2627C52.9793 22.9379 52.4995 22.4967 52.1511 21.9451C51.8057 21.3905 51.6315 20.7745 51.6315 20.0912ZM59.33 20.9277C59.5103 20.7163 59.654 20.5018 59.761 20.2812C59.8649 20.0636 59.9199 19.8767 59.9199 19.7265V18.2557C59.4523 18.0749 58.9602 17.9339 58.4499 17.8359C57.9364 17.7378 57.4321 17.6888 56.934 17.6888C55.9224 17.6888 55.1033 17.888 54.4768 18.2894C53.8503 18.6908 53.5386 19.2363 53.5386 19.9319C53.5386 20.3088 53.6394 20.6765 53.8442 21.0289C54.0489 21.3843 54.3484 21.6754 54.7488 21.9022C55.1492 22.1289 55.6443 22.2423 56.2311 22.2423C56.8484 22.2423 57.4383 22.1167 57.9975 21.8685C58.5507 21.6203 58.9969 21.3047 59.33 20.9277Z" fill="white"/>
<path d="M69.1523 23.75C68.1712 23.75 67.2513 23.5845 66.3895 23.2566C65.5307 22.9287 64.788 22.4384 64.1707 21.7796L64.9408 20.3609C65.6193 21.0013 66.2978 21.4579 66.9793 21.7337C67.6578 22.0094 68.3516 22.1443 69.0606 22.1443C69.8766 22.1443 70.5398 21.9911 71.0532 21.6816C71.5667 21.3721 71.8234 20.9186 71.8234 20.318C71.8234 19.8798 71.692 19.5549 71.4261 19.3404C71.1633 19.129 70.7873 18.9513 70.3045 18.8073C69.8216 18.6632 69.247 18.5008 68.5838 18.32C67.7678 18.078 67.0832 17.8206 66.524 17.5478C65.9647 17.2751 65.5429 16.935 65.2556 16.5274C64.9684 16.1199 64.8247 15.6051 64.8247 14.983C64.8247 14.2262 65.0203 13.5857 65.4146 13.0648C65.8057 12.5439 66.3467 12.1455 67.0343 11.8728C67.722 11.6001 68.5013 11.4652 69.3784 11.4652C70.2525 11.4652 71.0471 11.6031 71.7562 11.8759C72.4652 12.1516 73.0764 12.5561 73.5899 13.0893L72.6852 14.4836C72.2176 13.9963 71.7042 13.6348 71.1449 13.3957C70.5856 13.1598 69.9591 13.0403 69.2654 13.0403C68.8589 13.0403 68.4585 13.0893 68.0673 13.1874C67.6731 13.2854 67.3491 13.4601 67.0924 13.7083C66.8357 13.9565 66.7073 14.3089 66.7073 14.7624C66.7073 15.1393 66.8082 15.4396 67.0129 15.6572C67.2177 15.8778 67.5172 16.0617 67.9176 16.2118C68.3179 16.362 68.8039 16.5305 69.3784 16.7113C70.2678 16.9687 71.041 17.2261 71.6981 17.4835C72.3552 17.7409 72.8625 18.0718 73.2262 18.4824C73.5868 18.89 73.7702 19.4569 73.7702 20.1831C73.7702 21.3016 73.3484 22.1749 72.5019 22.8031C71.6584 23.4374 70.5398 23.75 69.1523 23.75Z" fill="white"/>
<path d="M82.2572 22.9962C82.0922 23.0728 81.866 23.1708 81.5787 23.2934C81.2915 23.416 80.9583 23.5232 80.5824 23.6121C80.2035 23.704 79.8061 23.75 79.3813 23.75C78.8985 23.75 78.4523 23.6611 78.0458 23.4865C77.6393 23.3118 77.3123 23.036 77.0709 22.6622C76.8294 22.2883 76.7072 21.8195 76.7072 21.2557V13.2272H75.0996V11.6491H76.7072V7.66862H78.6998V11.6491H81.3495V13.2272H78.6998V20.6397C78.7304 21.0657 78.874 21.3844 79.1307 21.5897C79.3875 21.795 79.69 21.8992 80.0354 21.8992C80.4266 21.8992 80.7902 21.8317 81.1203 21.6939C81.4534 21.556 81.6704 21.4579 81.7774 21.3966L82.2572 22.9962Z" fill="white"/>
<path d="M84.1157 9.33868V6.82291H86.1083V9.33868H84.1157ZM84.1157 23.5233V11.5817H86.1083V23.5233H84.1157V23.5233Z" fill="white"/>
<path d="M94.5493 23.75C93.66 23.75 92.8471 23.5875 92.1166 23.2627C91.3862 22.9379 90.7505 22.4875 90.2157 21.9114C89.6808 21.3353 89.2652 20.6765 88.9718 19.9349C88.6784 19.1934 88.5317 18.4058 88.5317 17.5724C88.5317 16.4508 88.7823 15.4304 89.2774 14.5081C89.7756 13.5857 90.4785 12.8472 91.3831 12.2957C92.2878 11.7441 93.336 11.4652 94.5279 11.4652C95.6893 11.4652 96.704 11.7288 97.5719 12.2558C98.4399 12.7829 99.0847 13.4877 99.5065 14.3732L97.5597 14.9922C97.2571 14.4284 96.8354 13.9902 96.2914 13.6777C95.7474 13.3651 95.1453 13.2088 94.4791 13.2088C93.7547 13.2088 93.0946 13.3988 92.4986 13.7757C91.9027 14.1526 91.432 14.6705 91.0836 15.3262C90.7352 15.982 90.5641 16.7327 90.5641 17.5785C90.5641 18.4089 90.7413 19.1597 91.0959 19.8307C91.4504 20.5018 91.9241 21.035 92.5231 21.4272C93.119 21.8195 93.7792 22.0156 94.5035 22.0156C94.9711 22.0156 95.4204 21.9328 95.8513 21.7643C96.2822 21.5958 96.6581 21.3721 96.9821 21.0902C97.306 20.8082 97.5291 20.4987 97.6483 20.1647L99.5951 20.7592C99.3537 21.3384 98.9869 21.8532 98.4979 22.3036C98.0059 22.7541 97.4252 23.1095 96.7559 23.3669C96.0866 23.6213 95.3501 23.75 94.5493 23.75Z" fill="white"/>
<defs>
<linearGradient id="paint0_linear_3454_1552" x1="100.844" y1="5.85835" x2="115.758" y2="5.85835" gradientUnits="userSpaceOnUse">
<stop stop-color="#DE8667"/>
<stop offset="1" stop-color="#EFB467"/>
</linearGradient>
</defs>
</svg>
