<svg width="80" height="81" viewBox="0 0 80 81" fill="none" xmlns="http://www.w3.org/2000/svg">
<g filter="url(#filter0_d_2629_2084)">
<circle cx="40" cy="40.5" r="32" fill="#DE8667"/>
</g>
<path d="M40.2954 36.0156C40.2603 35.9708 40.2155 35.9346 40.1644 35.9096C40.1132 35.8847 40.057 35.8717 40.0001 35.8717C39.9432 35.8717 39.887 35.8847 39.8359 35.9096C39.7847 35.9346 39.7399 35.9708 39.7048 36.0156L34.4548 42.6578C34.4115 42.7131 34.3847 42.7794 34.3773 42.8492C34.3699 42.919 34.3824 42.9895 34.4132 43.0526C34.444 43.1157 34.4919 43.1688 34.5515 43.2059C34.6111 43.243 34.6799 43.2626 34.7501 43.2625H38.2142V54.625C38.2142 54.8312 38.3829 55 38.5892 55H41.4017C41.6079 55 41.7767 54.8312 41.7767 54.625V43.2672H45.2501C45.5642 43.2672 45.7376 42.9062 45.5454 42.6625L40.2954 36.0156Z" fill="white"/>
<path d="M54.0344 31.6891C51.8875 26.0266 46.4172 22 40.0094 22C33.6016 22 28.1312 26.0219 25.9844 31.6844C21.9672 32.7391 19 36.4 19 40.75C19 45.9297 23.1953 50.125 28.3703 50.125H30.25C30.4563 50.125 30.625 49.9563 30.625 49.75V46.9375C30.625 46.7312 30.4563 46.5625 30.25 46.5625H28.3703C26.7906 46.5625 25.3047 45.9344 24.1984 44.7953C23.0969 43.6609 22.5109 42.1328 22.5625 40.5484C22.6047 39.3109 23.0266 38.1484 23.7906 37.1688C24.5734 36.1703 25.6703 35.4437 26.8891 35.1203L28.6656 34.6562L29.3172 32.9406C29.7203 31.8719 30.2828 30.8734 30.9906 29.9688C31.6894 29.0721 32.5171 28.2838 33.4469 27.6297C35.3734 26.275 37.6422 25.5578 40.0094 25.5578C42.3766 25.5578 44.6453 26.275 46.5719 27.6297C47.5047 28.2859 48.3297 29.0734 49.0281 29.9688C49.7359 30.8734 50.2984 31.8766 50.7016 32.9406L51.3484 34.6516L53.1203 35.1203C55.6609 35.8047 57.4375 38.1156 57.4375 40.75C57.4375 42.3016 56.8328 43.7641 55.7359 44.8609C55.198 45.402 54.5581 45.831 53.8533 46.1231C53.1484 46.4151 52.3926 46.5645 51.6297 46.5625H49.75C49.5437 46.5625 49.375 46.7312 49.375 46.9375V49.75C49.375 49.9563 49.5437 50.125 49.75 50.125H51.6297C56.8047 50.125 61 45.9297 61 40.75C61 36.4047 58.0422 32.7484 54.0344 31.6891Z" fill="white"/>
<defs>
<filter id="filter0_d_2629_2084" x="0" y="0.5" width="80" height="80" filterUnits="userSpaceOnUse" color-interpolation-filters="sRGB">
<feFlood flood-opacity="0" result="BackgroundImageFix"/>
<feColorMatrix in="SourceAlpha" type="matrix" values="0 0 0 0 0 0 0 0 0 0 0 0 0 0 0 0 0 0 127 0" result="hardAlpha"/>
<feOffset/>
<feGaussianBlur stdDeviation="4"/>
<feColorMatrix type="matrix" values="0 0 0 0 0 0 0 0 0 0 0 0 0 0 0 0 0 0 0.15 0"/>
<feBlend mode="normal" in2="BackgroundImageFix" result="effect1_dropShadow_2629_2084"/>
<feBlend mode="normal" in="SourceGraphic" in2="effect1_dropShadow_2629_2084" result="shape"/>
</filter>
</defs>
</svg>
